<svg height="80" viewBox="0 0 600 80" width="600" xmlns="http://www.w3.org/2000/svg"><path d="m0 0h600v80h-600z" fill="#0e3d54"/><path d="m33.92 7.44v2.42h-5.85v-2.42q0-.31-.26-.31h-19.45q-.31 0-.31.31v6.51q0 .31.31.31h19.45q2.51 0 4.31 1.78 1.8 1.78 1.8 4.33v6.51q0 2.56-1.8 4.34-1.8 1.78-4.31 1.78h-19.45q-2.55 0-4.33-1.78-1.79-1.78-1.79-4.34v-2.42h5.81v2.42q0 .31.31.31h19.45q.26 0 .26-.31v-6.51q0-.31-.26-.31h-19.45q-2.55 0-4.33-1.78-1.79-1.78-1.79-4.33v-6.51q0-2.56 1.79-4.34 1.78-1.78 4.33-1.78h19.45q2.51 0 4.31 1.78 1.8 1.78 1.8 4.34zm4.71 25.56v-31.64h25.52q2.55 0 4.36 1.81 1.8 1.8 1.8 4.31v8.54q0 2.5-1.8 4.31-1.81 1.8-4.36 1.8l-19.58.05-.13-.05v10.87zm25.83-16.98v-8.54q0-.31-.31-.31h-19.4q-.31 0-.31.31v8.54q0 .3.31.3h19.4q.31 0 .31-.3zm15-14.7h19.45q2.51 0 4.31 1.78 1.81 1.78 1.81 4.34v19.44q0 2.56-1.81 4.34-1.8 1.78-4.31 1.78h-19.45q-2.55 0-4.33-1.78-1.78-1.78-1.78-4.34v-19.44q0-2.56 1.78-4.34 1.78-1.78 4.33-1.78zm0 25.87h19.45q.27 0 .27-.31v-19.44q0-.31-.27-.31h-19.45q-.3 0-.3.31v19.44q0 .31.3.31zm62.04-19.71v8.54q0 2.5-1.8 4.31-1.8 1.8-4.36 1.8h-1.71l7.87 9.37v1.5h-6.33l-9.15-10.87h-10.26-.13v10.87h-5.81v-31.64h25.52q2.56 0 4.36 1.81 1.8 1.8 1.8 4.31zm-25.56 8.84h19.4q.31 0 .31-.3v-8.54q0-.31-.31-.31h-19.4q-.31 0-.31.31v8.54q0 .3.31.3zm28.64-9.19v-5.81h31.68v5.81h-12.89v25.87h-5.85v-25.87zm66.44.31v2.42h-5.85v-2.42q0-.31-.26-.31h-19.45q-.31 0-.31.31v6.51q0 .31.31.31h19.45q2.51 0 4.31 1.78 1.8 1.78 1.8 4.33v6.51q0 2.56-1.8 4.34-1.8 1.78-4.31 1.78h-19.45q-2.55 0-4.33-1.78-1.79-1.78-1.79-4.34v-2.42h5.81v2.42q0 .31.31.31h19.45q.26 0 .26-.31v-6.51q0-.31-.26-.31h-19.45q-2.55 0-4.33-1.78-1.79-1.78-1.79-4.33v-6.51q0-2.56 1.79-4.34 1.78-1.78 4.33-1.78h19.45q2.51 0 4.31 1.78 1.8 1.78 1.8 4.34zm24.6-6.12 19.49 23.23v-23.23h5.85v31.68h-6.33l-19.54-23.23v23.23h-5.81v-31.68zm56.01 25.56v-25.56h5.85v25.56q0 2.56-1.8 4.34-1.8 1.78-4.31 1.78h-19.45q-2.55 0-4.33-1.78-1.79-1.78-1.79-4.34v-25.56h5.81v25.56q0 .31.31.31h19.45q.26 0 .26-.31zm42.29-25.56v5.81h-25.48q-.31 0-.31.31v19.44q0 .31.31.31h25.48v5.81h-25.48q-2.55 0-4.33-1.78-1.79-1.78-1.79-4.34v-19.44q0-2.56 1.79-4.34 1.78-1.78 4.33-1.78zm36.3 31.68h-31.68v-31.72h5.8v25.91h25.88zm2.64-31.68h29.12v5.81h-23.27v7.13h18.74v5.8h-18.74v7.13h23.27v5.81h-29.12zm59.35 25.56v-25.56h5.85v25.56q0 2.56-1.8 4.34-1.8 1.78-4.31 1.78h-19.45q-2.55 0-4.33-1.78-1.79-1.78-1.79-4.34v-25.56h5.81v25.56q0 .31.31.31h19.45q.26 0 .26-.31zm42.15-19.44v2.42h-5.85v-2.42q0-.31-.26-.31h-19.45q-.31 0-.31.31v6.51q0 .31.31.31h19.45q2.51 0 4.31 1.78 1.8 1.78 1.8 4.33v6.51q0 2.56-1.8 4.34-1.8 1.78-4.31 1.78h-19.45q-2.55 0-4.33-1.78-1.79-1.78-1.79-4.34v-2.42h5.81v2.42q0 .31.31.31h19.45q.26 0 .26-.31v-6.51q0-.31-.26-.31h-19.45q-2.55 0-4.33-1.78-1.79-1.78-1.79-4.33v-6.51q0-2.56 1.79-4.34 1.78-1.78 4.33-1.78h19.45q2.51 0 4.31 1.78 1.8 1.78 1.8 4.34z" fill="#fff" transform="translate(100 13)"/><g transform="matrix(-.33333333 0 0 .33333333 82 14)"><g fill="#1b6dc1"><ellipse cx="59.963" cy="11.227" rx="11.194" ry="11.227"/><path d="m156.322 83.716c-6.182 0-11.194 5.025-11.194 11.228 0 6.199 5.013 11.226 11.194 11.226 6.186 0 11.199-5.027 11.199-11.226 0-6.2-5.013-11.228-11.199-11.228z"/><path d="m45.134 121.696c-6.182 0-11.196 5.027-11.196 11.229 0 6.201 5.014 11.229 11.196 11.229 6.18 0 11.195-5.029 11.195-11.229 0-6.204-5.016-11.229-11.195-11.229z"/></g><path d="m144.456 102.324c-1.142-1.845-1.871-3.968-2.05-6.253-3.366.938-6.975 1.771-10.76 2.503l2.4 5.862c3.621-.642 7.117-1.33 10.41-2.112zm-54.453-49.08c-48.792 0-90.003 12.56-90.003 27.425 0 14.867 41.211 27.424 90.003 27.424 11.521 0 22.59-.721 32.824-1.987l-1.736-5.84c-9.68 1.291-20.198 1.991-31.088 1.991-20.583 0-39.95-2.411-54.535-6.795-15.12-4.543-23.448-10.806-23.448-17.648 0-6.839 8.328-13.104 23.448-17.651 14.582-4.378 33.952-6.793 54.535-6.793 20.572 0 39.94 2.415 54.524 6.793 15.123 4.545 23.447 10.813 23.447 17.651 0 2.223-.894 4.387-2.606 6.45 2.53 2.155 4.274 5.202 4.771 8.655 6.274-3.711 9.86-7.879 9.86-12.25-.001-14.865-41.22-27.425-89.996-27.425z" fill="#fff"/><path d="m43.525 119.001c.528-.063 1.066-.098 1.61-.098 1.771 0 3.458.34 5.012.941.896-3.676 2.061-7.586 3.458-11.668l-6.096-1.348c-1.535 4.213-2.867 8.287-3.984 12.173zm18.354 31.495c-3.292.891-6.12.659-8.406-.664-1.45-.836-2.592-2.131-3.484-3.773-1.519.563-3.145.887-4.856.887-2.046 0-3.99-.455-5.749-1.256.3 6.506 2.108 11.133 5.614 13.16 11.166 6.465 36.414-15.031 58.85-48.625-.046-.047-.082-.094-.13-.137-14.809 21.858-30.675 37.412-41.839 40.408zm73.12-148.004c-12.838-7.436-44.292 22.086-68.684 64.466-5.722 9.939-10.606 19.849-14.614 29.31l5.884 1.448c3.677-8.901 8.292-18.327 13.769-27.84 10.295-17.876 22.061-33.492 33.132-43.966 11.486-10.872 21.058-14.964 26.966-11.546 5.899 3.418 7.149 13.784 3.517 29.191-.763 3.214-1.748 6.594-2.876 10.07.21.082.414.178.603.292 9.338-25.823 10.92-46.437 2.303-51.425zm-21.431 91.832c-.901 1.563-1.813 3.102-2.729 4.622.032.035.063.062.093.099.924-1.541 1.84-3.086 2.745-4.656.876-1.527 1.736-3.053 2.574-4.578-.043-.008-.088-.016-.135-.023-.828 1.51-1.68 3.023-2.548 4.536zm16.741-34.11c-.166-.007-.326-.021-.488-.047-2.062 5.553-4.525 11.326-7.328 17.193.064.02.131.035.197.05 2.85-5.858 5.403-11.622 7.619-17.196z" fill="#fff"/><path d="m73.503 14.656c-.615 2.444-1.852 4.632-3.554 6.376 4.68 3.722 9.676 8.668 14.758 14.562l3.588-5.348c-5.02-5.99-10.008-11.258-14.792-15.59zm40.174 52.302c-5.518-9.595-11.45-18.601-17.472-26.69-1.441 1.33-3.059 2.834-4.406 4.094 5.744 7.555 11.463 16.176 16.844 25.513 10.289 17.878 17.883 35.906 21.396 50.767 3.635 15.406 2.387 25.773-3.519 29.188-5.905 3.422-15.478-.676-26.961-11.539-7.535-7.129-15.384-16.637-22.875-27.619-.056.029-.11.066-.164.095 22.34 33.284 47.374 54.521 58.48 48.086 12.833-7.436 3.07-49.521-21.323-91.895zm-69.909-45.626c.628-2.353 1.638-4.196 2.99-5.55-.49-1.429-.771-2.954-.771-4.552 0-3.836 1.542-7.311 4.032-9.844-1.923-.08-3.607.289-5.019 1.108-2.214 1.284-3.802 3.674-4.72 7.116-2.516 9.399.208 25.439 6.896 44.014.196-.09.406-.17.627-.23-4.362-13.502-5.946-24.906-4.035-32.062zm22.547 73.052c.758 1.316 1.522 2.623 2.292 3.914.036-.03.068-.057.104-.09-.768-1.285-1.532-2.582-2.286-3.891-.96-1.672-1.892-3.336-2.8-5.004-.044.018-.092.023-.136.039.925 1.681 1.864 3.356 2.826 5.032zm-16.713-35.755c-.166.017-.33.039-.504.039-.008 0-.018-.004-.022-.004 2.334 6.002 5.06 12.22 8.124 18.523.062-.027.124-.058.188-.082-3.037-6.374-5.657-12.589-7.786-18.476z" fill="#fff"/></g></svg>